<svg width="85" height="84" viewBox="0 0 85 84" fill="none" xmlns="http://www.w3.org/2000/svg">
<path d="M1 42C1 19.3563 19.3563 1 42 1C64.6437 1 83 19.3563 83 42C83 64.6437 64.6437 83 42 83C19.3563 83 1 64.6437 1 42Z" fill="white"/>
<path d="M63.622 5.49054C65.5237 6.42395 68.8023 8.87929 70.4121 10.4356C70.4424 10.4634 70.4725 10.4912 70.5026 10.5191C70.892 10.8805 71.2575 11.2253 71.6774 11.6377C71.7877 11.7462 71.9017 11.8595 72.0207 11.9793C72.9652 12.9554 74.315 14.3018 76.3438 17.1755C77.0203 18.1053 77.6572 19.0618 78.2542 20.0456C78.4072 20.2976 78.5575 20.5514 78.7052 20.8069C80.5577 24.01 81.9781 27.4591 82.9168 31.0359C83.8567 34.6114 84.3124 38.3066 84.2847 41.9999C84.2588 45.6937 83.7496 49.3743 82.7654 52.9236C82.4929 53.9073 82.1855 54.877 81.8421 55.8371C81.7915 55.9846 81.7392 56.1343 81.6856 56.2851C80.8959 58.5441 79.6934 61.1309 78.5278 63.0904C78.188 63.6689 77.8561 64.1966 77.5524 64.6542C75.8456 67.2057 74.4599 68.7688 73.298 70.0151C72.7761 70.5868 72.2384 71.1442 71.6862 71.6862C69.072 74.2527 66.1261 76.4757 62.9477 78.2812C59.7681 80.0886 56.358 81.4763 52.8261 82.4004C51.2212 82.8206 49.5912 83.1457 47.9469 83.374C45.9736 83.6479 43.9917 83.7819 42.0001 83.7794C40.9326 83.7778 39.8879 83.7381 38.8244 83.6584C36.2439 83.4645 33.6858 83.0355 31.1815 82.3721C30.9699 82.3161 30.7589 82.2584 30.5486 82.1992C28.97 81.7769 27.4919 81.2864 26.1444 80.7646C24.2511 80.032 22.6202 79.2393 21.3149 78.5109C21.2156 78.4555 21.1162 78.3995 21.0167 78.3427C17.9459 76.6201 14.863 74.1411 12.7976 72.0589C12.6508 71.9132 12.5084 71.7697 12.3708 71.6292C12.179 71.4334 11.9965 71.2432 11.8237 71.0603C10.1434 69.3388 8.60844 67.4722 7.24363 65.4872C7.16146 65.3486 7.07988 65.2085 6.99782 65.0655C6.6259 64.4169 6.22054 63.715 5.77796 62.9135C5.00644 61.5075 4.0987 59.792 3.1596 57.4496C2.63216 56.1254 2.09975 54.5998 1.62799 52.8185C1.52765 52.439 1.43168 52.0537 1.33853 51.6529C0.999022 50.1685 0.927352 49.3961 0.861901 48.7599C0.843896 48.5734 0.827908 48.3966 0.810971 48.2211C0.752998 47.6179 0.635946 46.9886 0.518957 46.236C0.370161 45.2707 0.215006 44.0852 0.251046 42.5275C0.255355 42.3483 0.260443 42.1724 0.266198 42.0001C0.471994 37.4012 0.836991 35.3482 1.02608 33.7565C1.09472 33.2748 1.16545 32.8359 1.2552 32.3934C1.33226 32.014 1.4295 31.5995 1.54631 31.1597C1.86777 29.9373 2.34366 28.574 2.78995 27.5041C3.25461 26.3422 4.19088 24.0278 5.04869 22.3294C5.22733 21.9671 5.45669 21.5373 5.73033 21.0589C5.94228 20.6884 6.18054 20.2892 6.44501 19.8648C7.07077 18.8599 7.83976 17.7248 8.71104 16.5457C10.2072 14.5313 11.3769 13.2682 12.3032 12.3032C12.748 11.844 13.1429 11.4561 13.5145 11.1021C13.8424 10.7899 14.1525 10.5044 14.4664 10.2232C15.4568 9.33315 16.7432 8.2895 18.1131 7.32503C19.0429 6.66783 20.0116 6.04365 20.9255 5.49971C21.6209 5.08523 22.2852 4.71566 22.876 4.40067C25.5019 3.08739 28.2621 2.05648 31.1008 1.32615C32.1487 1.05642 33.2129 0.82646 34.2765 0.639572C36.3074 0.279026 38.2887 0.196596 39.7441 0.304958C41.1918 0.413863 42.0011 0.66972 41.9999 0.913199C41.9999 1.16353 41.1963 1.38537 39.8151 1.6394C38.4233 1.89377 36.562 2.18831 34.6346 2.56936C33.6246 2.76715 32.6155 3.00568 31.6235 3.28139C28.8082 4.06323 26.0852 5.1542 23.5118 6.52447C23.005 6.79428 22.5018 7.0761 22.0063 7.36765C18.9989 9.13659 16.2233 11.2941 13.763 13.763C13.2417 14.2859 12.7343 14.823 12.2418 15.3731C10.4093 17.4192 8.78395 19.6523 7.40224 22.0263C7.09556 22.5531 6.8003 23.0879 6.51822 23.6273C6.35811 23.9335 6.20173 24.2421 6.0493 24.5529C4.86566 27.1019 4.0134 29.7765 3.53164 31.6904C3.52944 31.6989 3.52725 31.7075 3.52507 31.716C3.12361 33.2959 2.86979 34.4602 2.67402 35.4619C2.54075 36.1547 2.44043 36.7628 2.37055 37.3908C2.33318 37.7287 2.28847 38.1865 2.24817 38.7406C2.18353 39.6264 2.13294 40.7417 2.13818 42.0001C2.14127 43.9665 2.30302 46.2408 2.61282 48.3695C2.78842 49.604 3.03824 50.9925 3.36288 52.3547C3.44515 52.7012 3.53171 53.0456 3.62181 53.3851C4.25153 55.7914 5.11453 57.9606 5.63571 59.0122C6.11709 59.9958 6.65917 61.0405 7.24371 62.0654C7.75783 62.9685 8.30473 63.8562 8.84809 64.6708C9.95151 66.3313 11.0536 67.6913 11.7379 68.4099C12.3663 69.0698 12.9127 69.6634 13.6116 70.3884C13.8222 70.6062 14.0471 70.8354 14.2938 71.08C15.0352 71.8119 15.9669 72.6935 17.3332 73.7721C18.9152 75.011 20.094 75.8105 21.1118 76.4675C21.3614 76.6275 21.6022 76.778 21.8387 76.9219C22.9626 77.6012 23.9772 78.1512 25.433 78.7616C27.3918 79.5828 29.4988 80.273 31.1728 80.7548C31.3059 80.7935 31.4427 80.8322 31.5828 80.8707C32.2465 81.0529 32.9775 81.2275 33.745 81.3854C34.9677 81.6385 36.2714 81.8414 37.4634 81.9967C38.4468 82.1253 39.2578 82.2304 39.9857 82.3092C40.2103 82.3335 40.4266 82.3549 40.6367 82.373C41.0893 82.3877 41.5438 82.3948 41.9999 82.3942C42.3407 82.3938 42.6802 82.389 43.0188 82.38C43.1469 82.3691 43.2813 82.3567 43.4213 82.343C44.1178 82.2743 44.9925 82.1732 46.0482 82.0409C47.7326 81.8271 49.2014 81.6121 50.7405 81.303C51.2935 81.191 51.8493 81.0667 52.4301 80.9192C53.1108 80.7462 53.8106 80.5455 54.5599 80.2954C55.5027 79.9813 56.5612 79.5706 57.5852 79.1181C59.1124 78.4485 60.5634 77.6764 61.5672 77.1335C61.7611 77.0293 61.9433 76.9366 62.1193 76.8494C62.2855 76.767 62.4461 76.6895 62.6055 76.6114C62.607 76.6107 62.6084 76.61 62.6099 76.6094C62.6322 76.5984 62.6545 76.5874 62.6768 76.5764C65.0545 75.1249 67.2778 73.4249 69.3005 71.5165C69.4722 71.3471 69.6441 71.1746 69.813 71.0022C70.0118 70.7993 70.207 70.5956 70.395 70.395C70.9875 69.7633 71.5063 69.1595 71.8541 68.7128C72.354 68.0786 73.6535 66.5202 74.8349 64.745C75.4586 63.8171 76.0564 62.8338 76.545 61.9432C76.6663 61.7226 76.7813 61.5076 76.8892 61.3005C77.2068 60.6906 77.5345 60.1288 77.8594 59.5391C78.1617 58.9895 78.4599 58.4189 78.7316 57.768C78.8677 57.4417 79.0012 57.0867 79.1382 56.7039C79.2585 56.3673 79.3816 56.0089 79.5093 55.6344C79.6273 55.288 79.9199 54.5227 80.2429 53.5234C80.3606 53.1595 80.4826 52.7638 80.6028 52.3456C80.6865 52.0545 80.7684 51.7558 80.8479 51.4491C81.3117 49.4537 81.6204 47.4271 81.7744 45.3869C81.783 44.9601 81.7719 44.5877 81.7433 44.2922C81.7228 44.0792 81.6925 43.9006 81.6606 43.7168C81.6169 43.4667 81.5703 43.2084 81.5334 42.8536C81.5047 42.5763 81.4938 42.2496 81.5082 42.0295C81.5089 42.0195 81.5096 42.0096 81.5104 42.0001C81.5104 41.9998 81.5104 42 81.5104 41.9999C81.5174 41.9117 81.5285 41.8413 81.5386 41.7769C81.5513 41.6951 81.5624 41.6219 81.561 41.5329C81.56 41.4687 81.5498 41.402 81.5371 41.3202C81.5168 41.1895 81.4904 41.0199 81.4817 40.7619C81.4502 39.8066 81.3852 38.706 81.2753 37.6447C81.1547 36.4586 80.9766 35.3071 80.7917 34.3993C80.6469 33.6819 80.4574 32.7467 80.215 31.7581C80.1137 31.3438 80.0038 30.9206 79.8868 30.4997C79.6095 29.4994 79.2893 28.5143 78.9748 27.6776C78.6686 26.8602 78.2931 26.0291 77.9033 25.2405C77.4357 24.2923 76.9466 23.4035 76.5496 22.6358C76.4858 22.5123 76.4257 22.356 76.355 22.1668C76.3368 22.1181 76.3179 22.0673 76.2981 22.0143C76.2294 21.8307 76.1487 21.6199 76.0472 21.3849C75.4735 20.4396 74.863 19.5192 74.2154 18.6235C74.1884 18.595 74.1606 18.5656 74.1326 18.5363C74.1321 18.5359 74.1316 18.5354 74.1312 18.535C73.496 17.8732 72.6254 16.9934 71.5455 15.6337C71.2699 15.2884 71.114 15.0536 70.9725 14.8422C70.8333 14.6348 70.7073 14.4498 70.4873 14.213C70.3823 14.1002 70.2642 13.9838 70.1361 13.8639C69.9589 13.6982 69.7624 13.5259 69.5542 13.3474C69.0503 12.9149 68.4778 12.4475 67.9423 11.9332C67.9057 11.8981 67.8663 11.8603 67.8251 11.8212C67.4351 11.4491 66.848 10.9102 66.2674 10.3601C64.8996 9.28864 63.4619 8.30378 61.9662 7.41528C61.4307 7.09717 60.8869 6.79096 60.3377 6.49826C57.8105 5.15102 55.1377 4.07378 52.373 3.29464C51.3357 3.00207 50.2779 2.74989 49.2208 2.54281C47.3318 2.16914 45.5078 1.87904 44.1426 1.628C42.7885 1.37722 42 1.15874 42 0.913199C41.9989 0.674246 42.7929 0.423283 44.2113 0.311954C45.6381 0.201306 47.5788 0.273042 49.5719 0.611716C50.6863 0.799128 51.8041 1.03432 52.9027 1.31291C54.996 1.84339 57.0534 2.53901 59.0427 3.39012C59.2031 3.45555 59.3637 3.52239 59.523 3.59016C60.7072 4.09454 61.8029 4.5821 62.8813 5.11471C62.989 5.16795 63.0965 5.22169 63.2039 5.27597C63.3435 5.34655 63.4829 5.41803 63.622 5.49054Z" fill="black"/>
<path d="M53 54H32V30H53V54Z" stroke="#E5E7EB"/>
<rect width="25" height="25" transform="translate(30.1094 30)" fill="white" fill-opacity="0.01" style="mix-blend-mode:multiply"/>
<path d="M43.3906 41.7188V36.25H41.8281V41.7188H36.3594V43.2812H41.8281V48.75H43.3906V43.2812H48.8594V41.7188H43.3906Z" fill="black"/>
</svg>