<svg width="25" height="25" viewBox="0 0 25 25" fill="none" xmlns="http://www.w3.org/2000/svg">
<rect width="25" height="25" fill="white" fill-opacity="0.01" style="mix-blend-mode:multiply"/>
<path d="M20.3125 3.125H17.1875V1.5625H15.625V3.125H9.375V1.5625H7.8125V3.125H4.6875C3.82812 3.125 3.125 3.82812 3.125 4.6875V20.3125C3.125 21.1719 3.82812 21.875 4.6875 21.875H20.3125C21.1719 21.875 21.875 21.1719 21.875 20.3125V4.6875C21.875 3.82812 21.1719 3.125 20.3125 3.125ZM20.3125 20.3125H4.6875V9.375H20.3125V20.3125ZM20.3125 7.8125H4.6875V4.6875H7.8125V6.25H9.375V4.6875H15.625V6.25H17.1875V4.6875H20.3125V7.8125Z" fill="black" fill-opacity="0.6"/>
</svg>
