<svg width="41" height="41" viewBox="0 0 41 41" fill="none" xmlns="http://www.w3.org/2000/svg">
<rect x="1" y="1" width="38.9293" height="38.9293" rx="19.4646" fill="white" fill-opacity="0.8"/>
<rect x="1" y="1" width="38.9293" height="38.9293" rx="19.4646" stroke="#E5E7EB" stroke-width="1.5" stroke-linejoin="round"/>
<rect width="17" height="17" transform="translate(12 11.9648)" fill="white" fill-opacity="0.01" style="mix-blend-mode:multiply"/>
<path d="M21.4244 27.9023L20.5 27.3711L22.625 23.6523H25.8125C26.0943 23.6523 26.3645 23.5404 26.5638 23.3411C26.7631 23.1419 26.875 22.8716 26.875 22.5898V16.2148C26.875 15.9331 26.7631 15.6628 26.5638 15.4635C26.3645 15.2643 26.0943 15.1523 25.8125 15.1523H15.1875C14.9057 15.1523 14.6355 15.2643 14.4362 15.4635C14.2369 15.6628 14.125 15.9331 14.125 16.2148V22.5898C14.125 22.8716 14.2369 23.1419 14.4362 23.3411C14.6355 23.5404 14.9057 23.6523 15.1875 23.6523H19.9688V24.7148H15.1875C14.6239 24.7148 14.0834 24.491 13.6849 24.0924C13.2864 23.6939 13.0625 23.1534 13.0625 22.5898V16.2148C13.0625 15.6513 13.2864 15.1108 13.6849 14.7122C14.0834 14.3137 14.6239 14.0898 15.1875 14.0898H25.8125C26.3761 14.0898 26.9166 14.3137 27.3151 14.7122C27.7136 15.1108 27.9375 15.6513 27.9375 16.2148V22.5898C27.9375 23.1534 27.7136 23.6939 27.3151 24.0924C26.9166 24.491 26.3761 24.7148 25.8125 24.7148H23.2413L21.4244 27.9023Z" fill="#161616"/>
<path d="M24.75 17.2773H16.25V18.3398H24.75V17.2773Z" fill="#161616"/>
<path d="M21.5625 20.4648H16.25V21.5273H21.5625V20.4648Z" fill="#161616"/>
</svg>