<svg width="23" height="23" viewBox="0 0 23 23" fill="none" xmlns="http://www.w3.org/2000/svg">
<rect width="23" height="23" fill="white" fill-opacity="0.01" style="mix-blend-mode:multiply"/>
<path d="M11.9401 1.59113C11.8125 1.49157 11.6553 1.4375 11.4935 1.4375C11.3317 1.4375 11.1745 1.49157 11.0469 1.59113L0.71875 9.64515L1.61194 10.7748L2.875 9.78998V18.6875C2.87578 19.0685 3.02748 19.4336 3.29689 19.7031C3.56631 19.9725 3.93149 20.1242 4.3125 20.125H18.6875C19.0685 20.1243 19.4338 19.9726 19.7032 19.7031C19.9726 19.4337 20.1243 19.0685 20.125 18.6875V9.79652L21.3881 10.7812L22.2812 9.65148L11.9401 1.59113ZM12.9375 18.6875H10.0625V12.9375H12.9375V18.6875ZM14.375 18.6875V12.9375C14.3746 12.5563 14.223 12.191 13.9535 11.9215C13.684 11.652 13.3186 11.5004 12.9375 11.5H10.0625C9.68137 11.5003 9.31596 11.6519 9.04645 11.9214C8.77695 12.1909 8.62538 12.5563 8.625 12.9375V18.6875H4.3125V8.66916L11.5 3.0701L18.6875 8.67671V18.6875H14.375Z" fill="#666666"/>
</svg>
