<svg width="41" height="41" viewBox="0 0 41 41" fill="none" xmlns="http://www.w3.org/2000/svg">
<rect x="0.929291" y="1" width="38.9293" height="38.9293" rx="19.4646" fill="white" fill-opacity="0.8"/>
<rect x="0.929291" y="1" width="38.9293" height="38.9293" rx="19.4646" stroke="#E5E7EB" stroke-width="1.5" stroke-linejoin="round"/>
<rect width="17" height="17" transform="translate(11.9293 11.9648)" fill="white" fill-opacity="0.01" style="mix-blend-mode:multiply"/>
<path d="M27.1799 22.2142L25.7418 20.7761V18.8711C25.7401 17.5546 25.2503 16.2856 24.3672 15.3093C23.484 14.333 22.2702 13.7188 20.9605 13.5856V12.4961H19.898V13.5856C18.5883 13.7188 17.3746 14.333 16.4914 15.3093C15.6083 16.2856 15.1185 17.5546 15.1168 18.8711V20.7761L13.6786 22.2142C13.579 22.3139 13.5231 22.449 13.523 22.5898V24.1836C13.523 24.3245 13.579 24.4596 13.6786 24.5592C13.7783 24.6589 13.9134 24.7148 14.0543 24.7148H17.773V25.1275C17.7615 25.8015 17.9991 26.4559 18.4402 26.9656C18.8814 27.4752 19.495 27.8041 20.1637 27.8893C20.533 27.926 20.9058 27.8849 21.2583 27.7688C21.6108 27.6527 21.9351 27.4641 22.2103 27.2151C22.4855 26.9662 22.7055 26.6623 22.8563 26.3232C23.007 25.9841 23.0851 25.6172 23.0855 25.2461V24.7148H26.8043C26.9452 24.7148 27.0803 24.6589 27.1799 24.5592C27.2796 24.4596 27.3355 24.3245 27.3355 24.1836V22.5898C27.3355 22.449 27.2796 22.3139 27.1799 22.2142ZM22.023 25.2461C22.023 25.6688 21.8551 26.0742 21.5562 26.373C21.2574 26.6719 20.852 26.8398 20.4293 26.8398C20.0066 26.8398 19.6012 26.6719 19.3023 26.373C19.0035 26.0742 18.8355 25.6688 18.8355 25.2461V24.7148H22.023V25.2461ZM26.273 23.6523H14.5855V22.8098L16.0236 21.3717C16.1233 21.2721 16.1793 21.137 16.1793 20.9961V18.8711C16.1793 17.7439 16.6271 16.6629 17.4241 15.8659C18.2211 15.0689 19.3021 14.6211 20.4293 14.6211C21.5565 14.6211 22.6375 15.0689 23.4345 15.8659C24.2315 16.6629 24.6793 17.7439 24.6793 18.8711V20.9961C24.6793 21.137 24.7353 21.2721 24.8349 21.3717L26.273 22.8098V23.6523Z" fill="#161616"/>
</svg>