<svg width="21" height="20" viewBox="0 0 21 20" fill="none" xmlns="http://www.w3.org/2000/svg">
<rect width="19.9446" height="20" transform="translate(0.966759)" fill="white" fill-opacity="0.01" style="mix-blend-mode:multiply"/>
<path d="M19.0416 17.2413L14.3346 12.5213C15.4656 11.1596 16.0296 9.41313 15.9093 7.6451C15.7889 5.87707 14.9934 4.22363 13.6883 3.02876C12.3832 1.83388 10.669 1.18955 8.90223 1.22981C7.13545 1.27007 5.45216 1.99182 4.20254 3.24491C2.95291 4.49801 2.23316 6.18597 2.19302 7.95765C2.15287 9.72934 2.79541 11.4483 3.98698 12.7571C5.17855 14.0658 6.8274 14.8635 8.59054 14.9842C10.3537 15.1049 12.0953 14.5393 13.4532 13.4051L18.1602 18.1251L19.0416 17.2413ZM3.45984 8.12515C3.45984 7.01263 3.78883 5.92509 4.4052 5.00007C5.02157 4.07504 5.89764 3.35407 6.92263 2.92833C7.94761 2.50258 9.07548 2.39119 10.1636 2.60823C11.2517 2.82527 12.2512 3.361 13.0357 4.14767C13.8202 4.93434 14.3545 5.93662 14.5709 7.02777C14.7873 8.11891 14.6762 9.24991 14.2517 10.2777C13.8271 11.3056 13.1081 12.1841 12.1857 12.8022C11.2632 13.4202 10.1787 13.7501 9.06926 13.7501C7.58205 13.7485 6.15623 13.1553 5.10462 12.1008C4.05301 11.0463 3.46149 9.61648 3.45984 8.12515Z" fill="#161616"/>
</svg>
